<?xml version="1.0" encoding="utf-8"?>
<!-- Generator: Adobe Illustrator 22.1.0, SVG Export Plug-In . SVG Version: 6.00 Build 0)  -->
<svg version="1.1" id="Logo" xmlns="http://www.w3.org/2000/svg" xmlns:xlink="http://www.w3.org/1999/xlink" x="0px" y="0px"
	 viewBox="0 0 137 28" style="enable-background:new 0 0 137 28;" xml:space="preserve">
<style type="text/css">
	.st0{enable-background:new    ;}
	.st1{fill:#FEFEFE;}
	.st2{fill:#65E496;}
	.st3{fill:#44444F;}
</style>
<g class="st0">
	<path class="st1" d="M46.1,23.2V3.3h6.7c2.3,0,4.2,0.5,5.5,1.4s2,2.3,2,4.1c0,0.9-0.2,1.7-0.7,2.5c-0.5,0.7-1.2,1.3-2.1,1.6
		c1.2,0.3,2.1,0.8,2.7,1.6c0.6,0.8,0.9,1.8,0.9,2.9c0,1.9-0.6,3.3-1.9,4.3s-3,1.5-5.3,1.5H46.1z M50.1,11.6H53
		c1.1,0,1.9-0.2,2.5-0.7s0.9-1.1,0.9-1.9c0-0.9-0.3-1.6-0.9-2c-0.6-0.4-1.4-0.7-2.6-0.7h-2.7V11.6z M50.1,14.4v5.7h3.7
		c1.1,0,1.9-0.2,2.4-0.7c0.6-0.5,0.8-1.1,0.8-2c0-1-0.2-1.7-0.7-2.2c-0.5-0.5-1.2-0.8-2.2-0.8H50.1z"/>
	<path class="st1" d="M79.9,3.3v13.2c0,2.2-0.7,4-2.2,5.2s-3.4,1.8-5.8,1.8c-2.4,0-4.3-0.6-5.8-1.8s-2.2-2.9-2.2-5.2V3.3h4v13.2
		c0,1.3,0.4,2.3,1.1,2.9c0.7,0.7,1.7,1,2.9,1c1.2,0,2.2-0.3,2.9-1s1.1-1.6,1.1-3V3.3H79.9z"/>
	<path class="st1" d="M89.5,14.9h-2.2v8.3h-4V3.3h4v8.1h1.7l5.3-8.1h4.9l-6.7,9.3l7.2,10.6h-4.9L89.5,14.9z"/>
</g>
<g class="st0">
	<path class="st2" d="M113.7,14.4h-8.2v5.7h9.6v3.1h-13.6V3.3H115v3.1h-9.6v5h8.2V14.4z"/>
	<path class="st2" d="M129.7,14.4h-8.2v5.7h9.6v3.1h-13.6V3.3h13.6v3.1h-9.6v5h8.2V14.4z"/>
</g>
<g id="logo_icon">
	<path id="Rectangle_10_copy_3" class="st2" d="M28,28L0,0h28V28z"/>
	<path class="st3" d="M28,0L0,28V0H28z"/>
</g>
</svg>
