<svg id="Logo" xmlns="http://www.w3.org/2000/svg" viewBox="0 0 131.13 28"><defs><style>.cls-1{isolation:isolate;}.cls-2{fill:#fefefe;}.cls-3{fill:#65e496;}.cls-4{fill:#44444f;}</style></defs><title>Logo</title><g id="BUKEE" class="cls-1"><g class="cls-1"><path class="cls-2" d="M46.14,23.17V3.26h6.72a9.54,9.54,0,0,1,5.49,1.37,4.64,4.64,0,0,1,2,4.09,4.27,4.27,0,0,1-.73,2.46,4.37,4.37,0,0,1-2.12,1.64,4.17,4.17,0,0,1,2.68,1.64,4.88,4.88,0,0,1,.9,2.91,5.15,5.15,0,0,1-1.89,4.33,8.52,8.52,0,0,1-5.34,1.47Zm4-11.57H53a4,4,0,0,0,2.46-.66A2.22,2.22,0,0,0,56.32,9a2.4,2.4,0,0,0-.87-2,4.3,4.3,0,0,0-2.59-.65H50.13Zm0,2.76v5.73h3.68a3.73,3.73,0,0,0,2.42-.69,2.51,2.51,0,0,0,.83-2,3.21,3.21,0,0,0-.71-2.23,2.92,2.92,0,0,0-2.24-.77Z" transform="translate(0 0)"/><path class="cls-2" d="M79.85,3.26V16.47a6.34,6.34,0,0,1-2.21,5.17,8.86,8.86,0,0,1-5.8,1.81,8.73,8.73,0,0,1-5.76-1.81,6.34,6.34,0,0,1-2.2-5.17V3.26h4v13.2a3.82,3.82,0,0,0,1,2.94,4.1,4.1,0,0,0,2.9,1,4.24,4.24,0,0,0,2.94-1,3.8,3.8,0,0,0,1.07-2.95V3.26Z" transform="translate(0 0)"/><path class="cls-2" d="M89.54,14.85H87.33v8.32h-4V3.26h4v8.13h1.74l5.27-8.13h4.88l-6.69,9.27,7.23,10.64H94.89Z" transform="translate(0 0)"/></g><g class="cls-1"><path class="cls-3" d="M113.66,14.42h-8.24v5.67h9.64v3.08H101.43V3.26H115V6.34h-9.61v5h8.24Z" transform="translate(0 0)"/><path class="cls-3" d="M129.74,14.42H121.5v5.67h9.63v3.08H117.5V3.26h13.61V6.34H121.5v5h8.24Z" transform="translate(0 0)"/></g></g><g id="logo_icon" data-name="logo icon"><path id="Rectangle_10_copy_3" data-name="Rectangle 10 copy 3" class="cls-3" d="M28,28,0,0H28Z" transform="translate(0 0)"/><path class="cls-4" d="M28,0,0,28V0Z" transform="translate(0 0)"/></g></svg>